# xmcd
#
# Track frame offsets:
#	151
#	13843
#	24514
#	42013
#	54859
#	67254
#	78187
#	91937
#	109190
#	122228
#	135839
#	144934
#
# Disc length: 1948 seconds
#
# Revision: 1
# Processed by: cddbd v1.5.2PL0 Copyright (c) Steve Scherf et al.
# Submitted via: audiograbber 1.83.01
#
DISCID=93079a0c
DTITLE=Nite Sky - Nite Sky Volume 604
DYEAR=2006
DGENRE=Country
TTITLE0=Kentucky Sisters - Night Of God's Love
TTITLE1=Ron Thompson - Listen To The Baby
TTITLE2=Kris Miller - A Resting Place
TTITLE3=Andrew Dean - The First Noel
TTITLE4=Karri Danner - We Three Kings
TTITLE5=Randi Parton - O Come All Ye Faithful
TTITLE6=Tim Neal Keziah - Silent Night
TTITLE7=Russ Roberts - One Night In Bethlehem
TTITLE8=Ron Thompson - A Battered Christmas Toy
TTITLE9=Joe Pearles - On A Snowy Christmas Night
TTITLE10=Andrew Dean - Jenny's Gift
TTITLE11=Nite Sky Records - Holiday Greeting
EXTD=YEAR: 2006
EXTT0=
EXTT1=
EXTT2=
EXTT3=
EXTT4=
EXTT5=
EXTT6=
EXTT7=
EXTT8=
EXTT9=
EXTT10=
EXTT11=
PLAYORDER=
